<?xml version="1.0" encoding="utf-8"?>
<!-- Generator: Adobe Illustrator 25.4.1, SVG Export Plug-In . SVG Version: 6.00 Build 0)  -->
<svg version="1.1" id="Capa_1" xmlns="http://www.w3.org/2000/svg" xmlns:xlink="http://www.w3.org/1999/xlink" x="0px" y="0px"
	 viewBox="0 0 512 512" style="enable-background:new 0 0 512 512;" xml:space="preserve">
<style type="text/css">
	.st0{opacity:0.2;}
	.st1{fill:#494959;}
</style>
<g class="st0">
	<g>
		<path class="st1" d="M131.6,236.8H35.8c-5.3,0-9.6,4.3-9.6,9.6v230c0,5.3,4.3,9.6,9.6,9.6h95.8c5.3,0,9.6-4.3,9.6-9.6v-230
			C141.2,241.1,136.9,236.8,131.6,236.8z"/>
	</g>
</g>
<g class="st0">
	<g>
		<path class="st1" d="M303.7,26h-95.8c-5.3,0-9.6,4.3-9.6,9.6v440.8c0,5.3,4.3,9.6,9.6,9.6h95.8c5.3,0,9.6-4.3,9.6-9.6V35.6
			C313.3,30.3,309,26,303.7,26z"/>
	</g>
</g>
<g class="st0">
	<g>
		<path class="st1" d="M476.2,121.8h-95.8c-5.3,0-9.6,4.3-9.6,9.6v345c0,5.3,4.3,9.6,9.6,9.6h95.8c5.3,0,9.6-4.3,9.6-9.6v-345
			C485.8,126.1,481.5,121.8,476.2,121.8z"/>
	</g>
</g>
</svg>
